<svg id="Layer_1" data-name="Layer 1" xmlns="http://www.w3.org/2000/svg" viewBox="0 0 19.6 20"><defs><style>.cls-1{fill:#4d4d4d;}</style></defs><title>icon-depth</title><path class="cls-1" d="M14.65,16.85l-2-2a0.5,0.5,0,0,1-.15-0.35A0.5,0.5,0,0,1,13,14h1V6H13a0.5,0.5,0,0,1-.5-0.5,0.5,0.5,0,0,1,.15-0.35l2-2a0.49,0.49,0,0,1,.7,0l2,2a0.5,0.5,0,0,1,.15.35A0.5,0.5,0,0,1,17,6H16v8h1a0.5,0.5,0,0,1,.5.5,0.5,0.5,0,0,1-.15.35l-2,2A0.49,0.49,0,0,1,14.65,16.85Z" transform="translate(-5.2)"/><rect class="cls-1" x="18.3" width="1.3" height="1.5"/><rect class="cls-1" x="18.3" y="3.7" width="1.3" height="1.5"/><rect class="cls-1" x="18.3" y="7.4" width="1.3" height="1.5"/><rect class="cls-1" x="18.3" y="11.1" width="1.3" height="1.5"/><rect class="cls-1" x="18.3" y="14.8" width="1.3" height="1.5"/><rect class="cls-1" x="18.3" y="18.5" width="1.3" height="1.5"/><rect class="cls-1" width="1.3" height="1.5"/><rect class="cls-1" y="3.7" width="1.3" height="1.5"/><rect class="cls-1" y="7.4" width="1.3" height="1.5"/><rect class="cls-1" y="11.1" width="1.3" height="1.5"/><rect class="cls-1" y="14.8" width="1.3" height="1.5"/><rect class="cls-1" y="18.5" width="1.3" height="1.5"/><rect class="cls-1" x="2.3" width="15" height="1.5"/><rect class="cls-1" x="2.3" y="18.5" width="15" height="1.5"/></svg>